.
..............................Site Info...........................

 -   http://www.scenetime.com  *_*   


Scenetime .Always on time . friendly online private torrent community ..

     We care to share . Join us on  http://www.scenetime.com 

    Be the first to get new release at  http://www.scenetime.com

        Seed back for speed


...................................NFO:.................................................[img]http://img838.imageshack.us/img838/5022/thismeanswarver2xlg.jpg[/img]

[img]http://img827.imageshack.us/img827/5300/infozw.png[/img]

Format                           : Matroska
Format version                   : Version 2
File size                        : 500 MiB
Duration                         : 1h 37mn
Overall bit rate                 : 717 Kbps

Video
ID                               : 1
Format                           : AVC
Format/Info                      : Advanced Video Codec
Format profile                   : High@L3.0
Format settings, CABAC           : Yes
Format settings, ReFrames        : 8 frames
Codec ID                         : V_MPEG4/ISO/AVC
Duration                         : 1h 37mn
Bit rate                         : 584 Kbps
Width                            : 720 pixels
Height                           : 304 pixels
Display aspect ratio             : 2.35:1
Frame rate mode                  : Variable
Frame rate                       : 23.976 fps
Color space                      : YUV
Chroma subsampling               : 4:2:0
Bit depth                        : 8 bits
Scan type                        : Progressive
Bits/(Pixel*Frame)               : 0.111
Stream size                      : 401 MiB (80%)
Writing library                  : x264 core 112

Audio
ID                               : 2
Format                           : AC-3
Format/Info                      : Audio Coding 3
Mode extension                   : CM (complete main)
Codec ID                         : A_AC3
Duration                         : 1h 37mn
Bit rate mode                    : Constant
Bit rate                         : 128 Kbps
Channel(s)                       : 2 channels
Channel positions                : Front: L R
Sampling rate                    : 48.0 KHz
Bit depth                        : 16 bits
Compression mode                 : Lossy
Stream size                      : 89.3 MiB (18%)

[img]http://img822.imageshack.us/img822/8919/imdba.png[/img]
 
http://www.imdb.com/title/tt1596350/

[img]http://img16.imageshack.us/img16/4793/screensy.png[/img]

[img]http://img256.imageshack.us/img256/7708/vlcsnap2012050713h29m46.png[/img]
[img]http://img846.imageshack.us/img846/5572/vlcsnap2012050713h30m02.png[/img]
[img]http://img221.imageshack.us/img221/809/vlcsnap2012050713h30m16.png[/img]
[img]http://img155.imageshack.us/img155/5271/vlcsnap2012050713h30m48.png[/img]
[img]http://img26.imageshack.us/img26/853/vlcsnap2012050713h32m06.png[/img]

Notes:
Nothing to say really. Just Enjoy! ;)

Source: DVDR-ALLiANCE (Thanks!)

Special thanks goes to bustheadz, you know why buddy. :D

[img]http://img526.imageshack.us/img526/7959/wigwam.png[/img]